<mxfile host="app.diagrams.net" modified="2022-08-02T07:01:08.059Z" agent="5.0 (Windows NT 10.0; Win64; x64) AppleWebKit/537.36 (KHTML, like Gecko) Chrome/103.0.0.0 Safari/537.36" etag="BTZqWIvy8RWsZF0600mE" version="20.2.0" type="github">
  <diagram id="AY_RZhpApxooX1UB-t8B" name="第 1 页">
    <mxGraphModel dx="1422" dy="794" grid="1" gridSize="10" guides="1" tooltips="1" connect="1" arrows="1" fold="1" page="1" pageScale="1" pageWidth="827" pageHeight="1169" math="0" shadow="0">
      <root>
        <mxCell id="0" />
        <mxCell id="1" parent="0" />
        <mxCell id="ZgvsAUaqCPlB6aMqaiT2-5" style="edgeStyle=orthogonalEdgeStyle;rounded=0;orthogonalLoop=1;jettySize=auto;html=1;entryX=0;entryY=0.5;entryDx=0;entryDy=0;" edge="1" parent="1" source="ZgvsAUaqCPlB6aMqaiT2-1" target="ZgvsAUaqCPlB6aMqaiT2-3">
          <mxGeometry relative="1" as="geometry" />
        </mxCell>
        <mxCell id="ZgvsAUaqCPlB6aMqaiT2-6" style="edgeStyle=orthogonalEdgeStyle;rounded=0;orthogonalLoop=1;jettySize=auto;html=1;entryX=0;entryY=0.5;entryDx=0;entryDy=0;" edge="1" parent="1" source="ZgvsAUaqCPlB6aMqaiT2-1" target="ZgvsAUaqCPlB6aMqaiT2-2">
          <mxGeometry relative="1" as="geometry" />
        </mxCell>
        <mxCell id="ZgvsAUaqCPlB6aMqaiT2-1" value="智能合约与跨链" style="rounded=1;whiteSpace=wrap;html=1;arcSize=50;" vertex="1" parent="1">
          <mxGeometry x="70" y="210" width="120" height="60" as="geometry" />
        </mxCell>
        <mxCell id="ZgvsAUaqCPlB6aMqaiT2-20" style="edgeStyle=orthogonalEdgeStyle;rounded=0;orthogonalLoop=1;jettySize=auto;html=1;entryX=0;entryY=0.5;entryDx=0;entryDy=0;" edge="1" parent="1" source="ZgvsAUaqCPlB6aMqaiT2-2" target="ZgvsAUaqCPlB6aMqaiT2-14">
          <mxGeometry relative="1" as="geometry" />
        </mxCell>
        <mxCell id="ZgvsAUaqCPlB6aMqaiT2-21" style="edgeStyle=orthogonalEdgeStyle;rounded=0;orthogonalLoop=1;jettySize=auto;html=1;entryX=0;entryY=0.5;entryDx=0;entryDy=0;" edge="1" parent="1" source="ZgvsAUaqCPlB6aMqaiT2-2" target="ZgvsAUaqCPlB6aMqaiT2-13">
          <mxGeometry relative="1" as="geometry" />
        </mxCell>
        <mxCell id="ZgvsAUaqCPlB6aMqaiT2-22" style="edgeStyle=orthogonalEdgeStyle;rounded=0;orthogonalLoop=1;jettySize=auto;html=1;entryX=0;entryY=0.5;entryDx=0;entryDy=0;" edge="1" parent="1" source="ZgvsAUaqCPlB6aMqaiT2-2" target="ZgvsAUaqCPlB6aMqaiT2-12">
          <mxGeometry relative="1" as="geometry" />
        </mxCell>
        <mxCell id="ZgvsAUaqCPlB6aMqaiT2-2" value="跨链智能合约" style="rounded=0;whiteSpace=wrap;html=1;" vertex="1" parent="1">
          <mxGeometry x="260" y="330" width="120" height="60" as="geometry" />
        </mxCell>
        <mxCell id="ZgvsAUaqCPlB6aMqaiT2-15" style="edgeStyle=orthogonalEdgeStyle;rounded=0;orthogonalLoop=1;jettySize=auto;html=1;entryX=0;entryY=0.5;entryDx=0;entryDy=0;" edge="1" parent="1" source="ZgvsAUaqCPlB6aMqaiT2-3" target="ZgvsAUaqCPlB6aMqaiT2-8">
          <mxGeometry relative="1" as="geometry" />
        </mxCell>
        <mxCell id="ZgvsAUaqCPlB6aMqaiT2-16" style="edgeStyle=orthogonalEdgeStyle;rounded=0;orthogonalLoop=1;jettySize=auto;html=1;entryX=0;entryY=0.75;entryDx=0;entryDy=0;" edge="1" parent="1" source="ZgvsAUaqCPlB6aMqaiT2-3" target="ZgvsAUaqCPlB6aMqaiT2-4">
          <mxGeometry relative="1" as="geometry" />
        </mxCell>
        <mxCell id="ZgvsAUaqCPlB6aMqaiT2-17" style="edgeStyle=orthogonalEdgeStyle;rounded=0;orthogonalLoop=1;jettySize=auto;html=1;entryX=0;entryY=0.5;entryDx=0;entryDy=0;" edge="1" parent="1" source="ZgvsAUaqCPlB6aMqaiT2-3" target="ZgvsAUaqCPlB6aMqaiT2-10">
          <mxGeometry relative="1" as="geometry" />
        </mxCell>
        <mxCell id="ZgvsAUaqCPlB6aMqaiT2-18" style="edgeStyle=orthogonalEdgeStyle;rounded=0;orthogonalLoop=1;jettySize=auto;html=1;entryX=0;entryY=0.5;entryDx=0;entryDy=0;" edge="1" parent="1" source="ZgvsAUaqCPlB6aMqaiT2-3" target="ZgvsAUaqCPlB6aMqaiT2-11">
          <mxGeometry relative="1" as="geometry" />
        </mxCell>
        <mxCell id="ZgvsAUaqCPlB6aMqaiT2-19" style="edgeStyle=orthogonalEdgeStyle;rounded=0;orthogonalLoop=1;jettySize=auto;html=1;entryX=0;entryY=0.5;entryDx=0;entryDy=0;" edge="1" parent="1" source="ZgvsAUaqCPlB6aMqaiT2-3" target="ZgvsAUaqCPlB6aMqaiT2-9">
          <mxGeometry relative="1" as="geometry" />
        </mxCell>
        <mxCell id="ZgvsAUaqCPlB6aMqaiT2-3" value="跨链的智能合约应用" style="rounded=0;whiteSpace=wrap;html=1;" vertex="1" parent="1">
          <mxGeometry x="260" y="90" width="120" height="60" as="geometry" />
        </mxCell>
        <mxCell id="ZgvsAUaqCPlB6aMqaiT2-4" value="" style="rounded=0;whiteSpace=wrap;html=1;flipH=0;flipV=1;container=0;" vertex="1" parent="1">
          <mxGeometry x="440" y="50" width="120" height="30" as="geometry" />
        </mxCell>
        <mxCell id="ZgvsAUaqCPlB6aMqaiT2-8" value="" style="rounded=0;whiteSpace=wrap;html=1;flipH=0;flipV=1;container=0;" vertex="1" parent="1">
          <mxGeometry x="440" width="120" height="30" as="geometry" />
        </mxCell>
        <mxCell id="ZgvsAUaqCPlB6aMqaiT2-9" value="" style="rounded=0;whiteSpace=wrap;html=1;flipH=0;flipV=1;container=0;" vertex="1" parent="1">
          <mxGeometry x="440" y="210" width="120" height="30" as="geometry" />
        </mxCell>
        <mxCell id="ZgvsAUaqCPlB6aMqaiT2-10" value="" style="rounded=0;whiteSpace=wrap;html=1;flipH=0;flipV=1;container=0;" vertex="1" parent="1">
          <mxGeometry x="440" y="105" width="120" height="30" as="geometry" />
        </mxCell>
        <mxCell id="ZgvsAUaqCPlB6aMqaiT2-11" value="" style="rounded=0;whiteSpace=wrap;html=1;flipH=0;flipV=1;container=0;" vertex="1" parent="1">
          <mxGeometry x="440" y="160" width="120" height="30" as="geometry" />
        </mxCell>
        <mxCell id="ZgvsAUaqCPlB6aMqaiT2-12" value="智能合约集成" style="rounded=0;whiteSpace=wrap;html=1;flipH=0;flipV=1;container=0;" vertex="1" parent="1">
          <mxGeometry x="440" y="400" width="120" height="30" as="geometry" />
        </mxCell>
        <mxCell id="ZgvsAUaqCPlB6aMqaiT2-13" value="智能合约调用" style="rounded=0;whiteSpace=wrap;html=1;flipH=0;flipV=1;container=0;" vertex="1" parent="1">
          <mxGeometry x="440" y="345" width="120" height="30" as="geometry" />
        </mxCell>
        <mxCell id="ZgvsAUaqCPlB6aMqaiT2-14" value="智能合约迁移" style="rounded=0;whiteSpace=wrap;html=1;flipH=0;flipV=1;container=0;" vertex="1" parent="1">
          <mxGeometry x="440" y="290" width="120" height="30" as="geometry" />
        </mxCell>
      </root>
    </mxGraphModel>
  </diagram>
</mxfile>
